<?xml version="1.0" standalone="no"?><!DOCTYPE svg PUBLIC "-//W3C//DTD SVG 1.1//EN" "http://www.w3.org/Graphics/SVG/1.1/DTD/svg11.dtd"><svg t="1577955732243" class="icon" viewBox="0 0 1024 1024" version="1.1" xmlns="http://www.w3.org/2000/svg" p-id="2373" width="32" height="32" xmlns:xlink="http://www.w3.org/1999/xlink"><defs><style type="text/css"></style></defs><path d="M822.297213 710.823147l24.700912 41.210849c7.295088 12.030496 5.375328 27.51656-4.607424 37.499312l-52.985377 52.985377c-9.982752 9.982752-25.468816 11.902512-37.499312 4.607424l-41.210849-24.700912c-36.731409 23.549056-77.302337 40.442945-119.92101 49.657793l-11.646544 46.71416c-3.455568 13.694288-15.742032 23.293088-29.820272 23.293089h-74.870642c-14.07824 0-26.364704-9.5988-29.820272-23.293089l-11.646544-46.586176c-42.618673-9.342832-83.189601-26.108736-119.92101-49.657793l-41.210849 24.700912c-12.030496 7.295088-27.51656 5.375328-37.499312-4.607424l-52.985377-52.985377c-9.982752-9.982752-11.902512-25.468816-4.607424-37.499312l24.700912-41.210849c-23.549056-36.731409-40.442945-77.302337-49.657793-119.92101l-46.586176-11.646544C91.508561 575.928009 81.909761 563.641545 81.909761 549.435321v-74.870642c0-14.07824 9.5988-26.364704 23.293089-29.820272l46.586176-11.646544c9.342832-42.618673 26.108736-83.189601 49.657793-119.92101l-24.700912-41.210849c-7.295088-12.030496-5.375328-27.51656 4.607424-37.499312l52.985377-52.985377c9.982752-9.982752 25.468816-11.902512 37.499312-4.607424l41.210849 24.700912c36.731409-23.549056 77.302337-40.442945 119.92101-49.657793l11.646544-46.586176c3.455568-13.694288 15.742032-23.293088 29.820272-23.293089h74.870642c14.07824 0 26.364704 9.5988 29.820272 23.293089l11.646544 46.586176c42.618673 9.342832 83.189601 26.108736 119.92101 49.657793l41.210849-24.700912c12.030496-7.295088 27.51656-5.375328 37.499312 4.607424l52.985377 52.985377c9.982752 9.982752 11.902512 25.468816 4.607424 37.499312l-24.700912 41.210849c23.549056 36.731409 40.442945 77.302337 49.657793 119.92101l46.586176 11.646544c13.694288 3.455568 23.293088 15.742032 23.293089 29.820272v74.870642c0 14.07824-9.5988 26.364704-23.293089 29.820272l-46.586176 11.646544c-9.214848 42.618673-26.108736 83.317585-49.657793 119.92101zM511.936008 757.793276c135.663042 0 245.729284-110.066242 245.729284-245.729284s-110.066242-245.729284-245.729284-245.729284-245.729284 110.066242-245.729284 245.729284 110.066242 245.729284 245.729284 245.729284z" fill="#319EEC" p-id="2374"></path><path d="M389.071366 512.063992c0 67.831521 55.033121 122.864642 122.864642 122.864642s122.864642-55.033121 122.864642-122.864642-55.033121-122.864642-122.864642-122.864642-122.864642 55.033121-122.864642 122.864642z" fill="#FFFFFF" p-id="2375"></path></svg>